<svg width="512" height="512" viewBox="0 0 512 512" xmlns="http://www.w3.org/2000/svg">
  <!-- Background Gradient -->
  <defs>
    <linearGradient id="grad1" x1="0%" y1="0%" x2="100%" y2="100%">
      <stop offset="0%" style="stop-color:#6366f1;stop-opacity:1" />
      <stop offset="100%" style="stop-color:#8b5cf6;stop-opacity:1" />
    </linearGradient>
    <linearGradient id="grad2" x1="0%" y1="0%" x2="100%" y2="0%">
      <stop offset="0%" style="stop-color:#fbbf24;stop-opacity:1" />
      <stop offset="100%" style="stop-color:#f59e0b;stop-opacity:1" />
    </linearGradient>
  </defs>

  <!-- Background rounded rectangle -->
  <rect width="512" height="512" rx="100" fill="url(#grad1)"/>

  <!-- Dashboard icon - 3 cards stacked -->
  <!-- Card 1 (top) -->
  <rect x="80" y="100" width="352" height="100" rx="15" fill="white" opacity="0.95"/>
  <rect x="100" y="120" width="60" height="8" rx="4" fill="url(#grad2)"/>
  <rect x="100" y="145" width="220" height="6" rx="3" fill="#e5e7eb"/>
  <rect x="100" y="165" width="180" height="6" rx="3" fill="#e5e7eb"/>

  <!-- Card 2 (middle) -->
  <rect x="80" y="220" width="352" height="100" rx="15" fill="white" opacity="0.9"/>
  <rect x="100" y="240" width="60" height="8" rx="4" fill="url(#grad2)"/>
  <rect x="100" y="265" width="240" height="6" rx="3" fill="#e5e7eb"/>
  <rect x="100" y="285" width="200" height="6" rx="3" fill="#e5e7eb"/>

  <!-- Card 3 (bottom) -->
  <rect x="80" y="340" width="352" height="100" rx="15" fill="white" opacity="0.85"/>
  <rect x="100" y="360" width="60" height="8" rx="4" fill="url(#grad2)"/>
  <rect x="100" y="385" width="260" height="6" rx="3" fill="#e5e7eb"/>
  <rect x="100" y="405" width="190" height="6" rx="3" fill="#e5e7eb"/>

  <!-- Pencil/Edit icon (top right) -->
  <circle cx="410" cy="150" r="35" fill="url(#grad2)"/>
  <path d="M 395 155 L 400 150 L 410 140 L 415 145 L 405 155 L 400 160 Z" fill="white"/>
  <rect x="393" y="157" width="10" height="4" fill="white" transform="rotate(-45 398 159)"/>
</svg>
